<svg width="266" height="102" viewBox="0 0 266 102" fill="none" xmlns="http://www.w3.org/2000/svg">
<path d="M19.192 61.6H40.216V76H0.376V8.32H19.192V61.6ZM98.9883 48.448C98.9883 49.92 98.8923 51.392 98.7003 52.864H63.0843C63.2763 55.808 64.0763 58.016 65.4843 59.488C66.9563 60.896 68.8123 61.6 71.0523 61.6C74.1883 61.6 76.4283 60.192 77.7723 57.376H97.8363C97.0043 61.088 95.3723 64.416 92.9403 67.36C90.5723 70.24 87.5643 72.512 83.9163 74.176C80.2683 75.84 76.2363 76.672 71.8203 76.672C66.5083 76.672 61.7723 75.552 57.6123 73.312C53.5163 71.072 50.2843 67.872 47.9163 63.712C45.6123 59.552 44.4603 54.656 44.4603 49.024C44.4603 43.392 45.6123 38.528 47.9163 34.432C50.2203 30.272 53.4203 27.072 57.5163 24.832C61.6763 22.592 66.4443 21.472 71.8203 21.472C77.1323 21.472 81.8363 22.56 85.9323 24.736C90.0283 26.912 93.2283 30.048 95.5323 34.144C97.8363 38.176 98.9883 42.944 98.9883 48.448ZM79.7883 43.744C79.7883 41.44 79.0203 39.648 77.4843 38.368C75.9483 37.024 74.0283 36.352 71.7243 36.352C69.4203 36.352 67.5323 36.992 66.0603 38.272C64.5883 39.488 63.6283 41.312 63.1803 43.744H79.7883ZM103.617 49.024C103.617 43.456 104.609 38.592 106.593 34.432C108.641 30.272 111.393 27.072 114.849 24.832C118.369 22.592 122.273 21.472 126.561 21.472C130.273 21.472 133.473 22.208 136.161 23.68C138.849 25.152 140.929 27.136 142.401 29.632V22.144H161.217V76H142.401V68.512C140.929 71.008 138.817 72.992 136.065 74.464C133.377 75.936 130.209 76.672 126.561 76.672C122.273 76.672 118.369 75.552 114.849 73.312C111.393 71.072 108.641 67.872 106.593 63.712C104.609 59.488 103.617 54.592 103.617 49.024ZM142.401 49.024C142.401 45.568 141.441 42.848 139.521 40.864C137.665 38.88 135.361 37.888 132.609 37.888C129.793 37.888 127.457 38.88 125.601 40.864C123.745 42.784 122.817 45.504 122.817 49.024C122.817 52.48 123.745 55.232 125.601 57.28C127.457 59.264 129.793 60.256 132.609 60.256C135.361 60.256 137.665 59.264 139.521 57.28C141.441 55.296 142.401 52.544 142.401 49.024ZM201.027 37.792H192.579V76H173.667V37.792H167.811V22.144H173.667V21.664C173.667 14.752 175.683 9.472 179.715 5.824C183.811 2.112 189.667 0.255997 197.283 0.255997C198.819 0.255997 200.003 0.287996 200.835 0.351995V16.384C200.323 16.32 199.619 16.288 198.723 16.288C196.675 16.288 195.171 16.768 194.211 17.728C193.251 18.624 192.707 20.096 192.579 22.144H201.027V37.792ZM265.735 22.144L231.559 101.632H211.111L223.975 73.696L201.895 22.144H222.823L234.151 52.672L245.095 22.144H265.735Z" fill="#E76F51"/>
</svg>
